<svg width="48" height="48" viewBox="0 0 48 48" fill="none" xmlns="http://www.w3.org/2000/svg">
<path fill-rule="evenodd" clip-rule="evenodd" d="M23.9978 0C10.7451 0 0 10.7451 0 24.0007C0 34.6044 6.87609 43.5991 16.413 46.7742C17.6138 46.9937 18.0514 46.2526 18.0514 45.6161C18.0514 45.0474 18.0308 43.5372 18.019 41.535C11.3433 42.9847 9.93474 38.3172 9.93474 38.3172C8.843 35.5458 7.26947 34.8077 7.26947 34.8077C5.0904 33.3181 7.43448 33.3476 7.43448 33.3476C9.8434 33.5185 11.1105 35.8214 11.1105 35.8214C13.2512 39.4885 16.7283 38.4292 18.0956 37.8163C18.3136 36.2648 18.9324 35.207 19.619 34.6073C14.2899 34.0018 8.68682 31.942 8.68682 22.7454C8.68682 20.1258 9.62239 17.9836 11.1576 16.3055C10.9101 15.6985 10.0865 13.2586 11.3919 9.95389C11.3919 9.95389 13.4074 9.30857 17.9924 12.4144C19.9063 11.8825 21.9602 11.6158 24.0007 11.607C26.0384 11.6158 28.0922 11.8825 30.009 12.4144C34.5911 9.30857 36.6022 9.95389 36.6022 9.95389C37.912 13.2586 37.0884 15.6985 36.8409 16.3055C38.3791 17.9836 39.3088 20.1258 39.3088 22.7454C39.3088 31.9656 33.6968 33.9944 28.35 34.5882C29.2119 35.3293 29.9796 36.7938 29.9796 39.0332C29.9796 42.2407 29.9501 44.8294 29.9501 45.6161C29.9501 46.2585 30.3818 47.0055 31.6002 46.7712C41.1298 43.5903 48 34.6014 48 24.0007C48 10.7451 37.2534 0 23.9978 0Z" fill="white"/>
</svg>
